<?xml version="1.0" encoding="UTF-8"?>
<!-- Generator: Adobe Illustrator 20.0.0, SVG Export Plug-In . SVG Version: 6.00 Build 0)  -->
<svg xmlns="http://www.w3.org/2000/svg" xmlns:xlink="http://www.w3.org/1999/xlink" xmlns:dc="http://purl.org/dc/elements/1.1/" xmlns:cc="http://creativecommons.org/ns#" xmlns:rdf="http://www.w3.org/1999/02/22-rdf-syntax-ns#" version="1.1" id="DESIGNS" x="0px" y="0px" width="32px" height="32px" viewBox="0 0 32 32" style="enable-background:new 0 0 32 32;" xml:space="preserve">
<title property="dc:title">to bloom</title><desc property="dc:description">An icon for "bloom" from the Open series on to [icon]. Downloaded from http://www.toicon.com/icons/open_bloom by 103.71.42.28 on 2019-03-22. Licensed CC-BY, see http://toicon.com/license/ for details.</desc>
<g>
	<g>
		<path class="open_een" d="M17.271,19.296c0.192,0,0.375-0.111,0.458-0.297c0.408-0.919,0.914-1.748,1.504-2.464    c0.896-1.087,2.074-2.024,3.501-2.783c0.244-0.129,0.336-0.433,0.207-0.676c-0.129-0.244-0.433-0.338-0.676-0.207    c-1.543,0.821-2.823,1.84-3.803,3.029c-0.648,0.786-1.202,1.692-1.647,2.694c-0.112,0.252,0.002,0.548,0.254,0.66    C17.135,19.283,17.204,19.296,17.271,19.296z" style="fill: #0B1719;"/>
		<path class="open_een" d="M29.96,12.354c-0.016-0.425-0.213-0.824-0.542-1.095c-0.331-0.272-0.766-0.39-1.192-0.323    c-0.707,0.111-1.762,0.319-2.95,0.691c-0.295-1.417-0.709-2.612-1.021-3.399c-0.157-0.397-0.478-0.708-0.879-0.853    c-0.405-0.146-0.853-0.11-1.23,0.096c-0.594,0.325-1.457,0.838-2.394,1.532c-0.873-1.616-1.89-2.909-2.622-3.739    c-0.288-0.327-0.702-0.514-1.135-0.514h0c-0.426,0-0.832,0.183-1.112,0.501c-0.756,0.855-1.806,2.191-2.694,3.864    c-1.02-0.711-1.962-1.228-2.607-1.55C9.197,7.375,8.75,7.356,8.352,7.516C7.952,7.677,7.639,8.004,7.494,8.412    C7.417,8.628,7.334,8.875,7.25,9.147C7.167,9.411,7.313,9.691,7.577,9.773c0.264,0.083,0.544-0.064,0.626-0.328    c0.081-0.258,0.16-0.492,0.233-0.698c0.05-0.142,0.153-0.25,0.289-0.305C8.859,8.39,9.003,8.396,9.134,8.46    c0.71,0.354,1.796,0.955,2.937,1.803c0.119,0.088,0.272,0.119,0.417,0.084c0.145-0.035,0.266-0.133,0.331-0.267    c0.888-1.819,2.02-3.271,2.813-4.168c0.093-0.105,0.222-0.163,0.363-0.163c0.146,0,0.287,0.064,0.385,0.175    c0.771,0.875,1.876,2.29,2.754,4.059c0.067,0.135,0.191,0.232,0.338,0.266c0.148,0.035,0.301-0.001,0.419-0.095    c1.063-0.838,2.074-1.444,2.735-1.806c0.128-0.07,0.275-0.081,0.411-0.033c0.134,0.048,0.236,0.148,0.289,0.281    c0.336,0.847,0.796,2.188,1.075,3.77c0.025,0.144,0.112,0.27,0.238,0.344c0.125,0.075,0.279,0.091,0.417,0.042l0.104-0.036    c1.296-0.439,2.468-0.674,3.223-0.793c0.145-0.025,0.288,0.015,0.4,0.108c0.109,0.09,0.172,0.217,0.178,0.359    c0.068,1.87-0.066,6.575-2.783,9.871c-3.504,4.25-10.118,4.736-10.171,4.74c-0.066-0.004-6.674-0.482-10.184-4.74    c-2.717-3.295-2.852-8-2.783-9.869c0.005-0.142,0.068-0.27,0.178-0.36c0.112-0.092,0.252-0.13,0.4-0.107    c0.764,0.122,1.951,0.36,3.263,0.808c2.542,0.868,4.522,2.147,5.887,3.803c1.959,2.377,2.569,5.476,2.735,7.658    c0.021,0.275,0.257,0.481,0.537,0.46c0.262-0.02,0.462-0.239,0.462-0.498c0-0.013,0-0.025-0.001-0.039    c-0.015-0.202-0.034-0.412-0.058-0.628c-0.241-2.229-0.938-5.133-2.804-7.468c-0.033-0.041-0.065-0.081-0.099-0.121c0,0,0,0,0,0    c-1.484-1.801-3.616-3.185-6.335-4.113c-1.379-0.471-2.626-0.722-3.429-0.849c-0.426-0.069-0.86,0.05-1.191,0.322    c-0.329,0.27-0.526,0.669-0.542,1.096c-0.073,1.983,0.076,6.981,3.011,10.541c3.782,4.589,10.602,5.083,10.89,5.103    C15.952,28,15.976,28,16,28s0.048,0,0.059-0.001c0.288-0.019,7.108-0.514,10.89-5.103C29.884,19.336,30.033,14.337,29.96,12.354z" style="fill: #0B1719;"/>
	</g>
	<g>
		<path class="open_een" d="M17.271,19.296c0.192,0,0.375-0.111,0.458-0.297c0.408-0.919,0.914-1.748,1.504-2.464    c0.896-1.087,2.074-2.024,3.501-2.783c0.244-0.129,0.336-0.433,0.207-0.676c-0.129-0.244-0.433-0.338-0.676-0.207    c-1.543,0.821-2.823,1.84-3.803,3.029c-0.648,0.786-1.202,1.692-1.647,2.694c-0.112,0.252,0.002,0.548,0.254,0.66    C17.135,19.283,17.204,19.296,17.271,19.296z" style="fill: #0B1719;"/>
		<path class="open_een" d="M29.96,12.354c-0.016-0.425-0.213-0.824-0.542-1.095c-0.331-0.272-0.766-0.39-1.192-0.323    c-0.707,0.111-1.762,0.319-2.95,0.691c-0.295-1.417-0.709-2.612-1.021-3.399c-0.157-0.397-0.478-0.708-0.879-0.853    c-0.405-0.146-0.853-0.11-1.23,0.096c-0.594,0.325-1.457,0.838-2.394,1.532c-0.873-1.616-1.89-2.909-2.622-3.739    c-0.288-0.327-0.702-0.514-1.135-0.514h0c-0.426,0-0.832,0.183-1.112,0.501c-0.756,0.855-1.806,2.191-2.694,3.864    c-1.02-0.711-1.962-1.228-2.607-1.55C9.197,7.375,8.75,7.356,8.352,7.516C7.952,7.677,7.639,8.004,7.494,8.412    C7.417,8.628,7.334,8.875,7.25,9.147C7.167,9.411,7.313,9.691,7.577,9.773c0.264,0.083,0.544-0.064,0.626-0.328    c0.081-0.258,0.16-0.492,0.233-0.698c0.05-0.142,0.153-0.25,0.289-0.305C8.859,8.39,9.003,8.396,9.134,8.46    c0.71,0.354,1.796,0.955,2.937,1.803c0.119,0.088,0.272,0.119,0.417,0.084c0.145-0.035,0.266-0.133,0.331-0.267    c0.888-1.819,2.02-3.271,2.813-4.168c0.093-0.105,0.222-0.163,0.363-0.163c0.146,0,0.287,0.064,0.385,0.175    c0.771,0.875,1.876,2.29,2.754,4.059c0.067,0.135,0.191,0.232,0.338,0.266c0.148,0.035,0.301-0.001,0.419-0.095    c1.063-0.838,2.074-1.444,2.735-1.806c0.128-0.07,0.275-0.081,0.411-0.033c0.134,0.048,0.236,0.148,0.289,0.281    c0.336,0.847,0.796,2.188,1.075,3.77c0.025,0.144,0.112,0.27,0.238,0.344c0.125,0.075,0.279,0.091,0.417,0.042l0.104-0.036    c1.296-0.439,2.468-0.674,3.223-0.793c0.145-0.025,0.288,0.015,0.4,0.108c0.109,0.09,0.172,0.217,0.178,0.359    c0.068,1.87-0.066,6.575-2.783,9.871c-3.504,4.25-10.118,4.736-10.171,4.74c-0.066-0.004-6.674-0.482-10.184-4.74    c-2.717-3.295-2.852-8-2.783-9.869c0.005-0.142,0.068-0.27,0.178-0.36c0.112-0.092,0.252-0.13,0.4-0.107    c0.764,0.122,1.951,0.36,3.263,0.808c2.542,0.868,4.522,2.147,5.887,3.803c1.959,2.377,2.569,5.476,2.735,7.658    c0.021,0.275,0.257,0.481,0.537,0.46c0.262-0.02,0.462-0.239,0.462-0.498c0-0.013,0-0.025-0.001-0.039    c-0.015-0.202-0.034-0.412-0.058-0.628c-0.241-2.229-0.938-5.133-2.804-7.468c-0.033-0.041-0.065-0.081-0.099-0.121c0,0,0,0,0,0    c-1.484-1.801-3.616-3.185-6.335-4.113c-1.379-0.471-2.626-0.722-3.429-0.849c-0.426-0.069-0.86,0.05-1.191,0.322    c-0.329,0.27-0.526,0.669-0.542,1.096c-0.073,1.983,0.076,6.981,3.011,10.541c3.782,4.589,10.602,5.083,10.89,5.103    C15.952,28,15.976,28,16,28s0.048,0,0.059-0.001c0.288-0.019,7.108-0.514,10.89-5.103C29.884,19.336,30.033,14.337,29.96,12.354z" style="fill: #0B1719;"/>
	</g>
</g>
<metadata><work rdf:about=""><format>image/svg+xml</format><type rdf:resource="http://purl.org/dc/dcmitype/StillImage"/><license rdf:resource="http://creativecommons.org/licenses/by/4.0/"/><attributionname>Ariane Garoff</attributionname><attributionurl>http://www.toicon.com/icons/open_bloom</attributionurl></work></metadata></svg>
